# This file uses centimeters as units for non-parametric coordinates.

mtllib DepoBox.mtl
g default
v -1.508373 -0.500000 0.500000
v 1.508373 -0.500000 0.500000
v -1.508373 0.500000 0.500000
v 1.508373 0.500000 0.500000
v -1.508373 1.099462 -0.500000
v 1.508373 1.099462 -0.500000
v -1.508373 -0.500000 -0.500000
v 1.508373 -0.500000 -0.500000
v -1.286163 0.500000 0.500000
v -1.286163 1.099462 -0.500000
v -1.286163 -0.500000 -0.500000
v -1.286163 -0.500000 0.500000
v 1.302559 0.500000 0.500000
v 1.302559 1.099462 -0.500000
v 1.302559 -0.500000 -0.500000
v 1.302559 -0.500000 0.500000
v -1.508373 0.636264 0.272690
v -1.508373 -0.500000 0.272690
v -1.286163 -0.500000 0.272690
v 1.302559 -0.500000 0.272690
v 1.508373 -0.500000 0.272690
v 1.508373 0.636264 0.272690
v -1.508373 0.987571 -0.313348
v -1.508373 -0.500000 -0.313348
v -1.286163 -0.500000 -0.313348
v 1.302559 -0.500000 -0.313348
v 1.508373 -0.500000 -0.313348
v 1.508373 0.987571 -0.313348
v 1.302559 0.017568 0.104049
v -1.286163 0.017568 0.104049
v 1.302559 0.085720 -0.317348
v -1.286163 0.085720 -0.317348
v -1.357637 0.599515 0.333993
v -1.286163 0.574961 0.235941
v -1.357637 1.024320 -0.374651
v -1.286163 0.926268 -0.350096
v 1.374033 0.599515 0.333993
v 1.302559 0.574961 0.235941
v 1.374033 1.024320 -0.374651
v 1.302559 0.926268 -0.350096
vt 0.375000 0.000000
vt 0.625000 0.000000
vt 0.375000 0.250000
vt 0.625000 0.250000
vt 0.625000 0.500000
vt 0.375000 0.750000
vt 0.625000 0.750000
vt 0.375000 1.000000
vt 0.625000 1.000000
vt 0.875000 0.000000
vt 0.875000 0.250000
vt 0.125000 0.000000
vt 0.125000 0.250000
vt 0.393415 0.750000
vt 0.393415 0.000000
vt 0.393415 1.000000
vt 0.607944 0.750000
vt 0.607944 0.000000
vt 0.607944 1.000000
vt 0.318173 0.250000
vt 0.318173 0.000000
vt 0.375000 0.943173
vt 0.393415 0.943173
vt 0.607944 0.943173
vt 0.625000 0.943173
vt 0.681827 0.000000
vt 0.681827 0.250000
vt 0.171663 0.250000
vt 0.171663 0.000000
vt 0.375000 0.796663
vt 0.393415 0.796663
vt 0.607944 0.796663
vt 0.625000 0.796663
vt 0.828337 0.000000
vt 0.828337 0.250000
vt 0.393415 0.250000
vt 0.387492 0.291502
vt 0.607944 0.250000
vt 0.625000 0.306827
vt 0.375000 0.306827
vt 0.613867 0.291502
vt 0.625000 0.453337
vt 0.375000 0.453337
vt 0.387492 0.468663
vt 0.375000 0.500000
vt 0.607944 0.500000
vt 0.613867 0.468663
vt 0.393415 0.500000
vt 0.607944 0.306827
vt 0.393415 0.306827
vt 0.607944 0.453337
vt 0.607944 0.306827
vt 0.393415 0.453337
vt 0.607944 0.453337
vt 0.393415 0.306827
vt 0.393415 0.453337
vn 0.000000 0.000000 1.000000
vn 0.000000 0.000000 1.000000
vn 0.000000 0.000000 1.000000
vn 0.000000 0.000000 1.000000
vn 0.000000 0.000000 -1.000000
vn 0.000000 0.000000 -1.000000
vn 0.000000 0.000000 -1.000000
vn 0.000000 0.000000 -1.000000
vn 0.000000 -1.000000 0.000000
vn 0.000000 -1.000000 0.000000
vn 0.000000 -1.000000 0.000000
vn 0.000000 -1.000000 0.000000
vn 1.000000 0.000000 0.000000
vn 1.000000 0.000000 0.000000
vn 1.000000 0.000000 0.000000
vn 1.000000 0.000000 0.000000
vn -1.000000 0.000000 0.000000
vn -1.000000 0.000000 0.000000
vn -1.000000 0.000000 0.000000
vn -1.000000 0.000000 0.000000
vn 0.000000 0.000000 -1.000000
vn 0.000000 0.000000 -1.000000
vn 0.000000 -1.000000 0.000000
vn 0.000000 -1.000000 0.000000
vn 0.000000 0.000000 1.000000
vn 0.000000 0.000000 1.000000
vn 0.000000 0.000000 -1.000000
vn 0.000000 0.000000 -1.000000
vn 0.000000 -1.000000 0.000000
vn 0.000000 -1.000000 0.000000
vn 0.000000 0.000000 1.000000
vn 0.000000 0.000000 1.000000
vn -1.000000 0.000000 0.000000
vn -1.000000 0.000000 0.000000
vn 0.000000 -1.000000 0.000000
vn 0.000000 -1.000000 0.000000
vn 0.000000 -1.000000 0.000000
vn 0.000000 -1.000000 0.000000
vn 1.000000 0.000000 0.000000
vn 1.000000 0.000000 0.000000
vn 0.000000 0.987173 0.159655
vn 0.000000 0.987173 0.159655
vn 0.000000 0.987173 0.159655
vn 0.000000 0.987173 0.159655
vn -1.000000 0.000000 0.000000
vn -1.000000 0.000000 0.000000
vn 0.000000 -1.000000 0.000000
vn 0.000000 -1.000000 0.000000
vn 0.000000 -1.000000 0.000000
vn 0.000000 -1.000000 0.000000
vn 1.000000 0.000000 0.000000
vn 1.000000 0.000000 0.000000
vn 0.707107 0.606482 0.363563
vn 0.707107 0.606482 0.363563
vn 0.707107 0.606482 0.363563
vn 0.707107 0.606482 0.363563
vn 0.000000 0.970046 -0.242920
vn 0.000000 0.970046 -0.242920
vn 0.000000 0.970046 -0.242920
vn 0.000000 0.970046 -0.242920
vn 0.000000 0.242920 0.970046
vn 0.000000 0.242920 0.970046
vn 0.000000 0.242920 0.970046
vn 0.000000 0.242920 0.970046
vn -0.707107 0.606483 0.363563
vn -0.707107 0.606483 0.363563
vn -0.707107 0.606483 0.363563
vn -0.707107 0.606483 0.363563
vn -0.000000 0.857697 0.514156
vn -0.000000 0.857696 0.514156
vn -0.000000 0.857697 0.514156
vn -0.000000 0.857697 0.514156
vn 0.000000 0.857697 0.514156
vn 0.000000 0.857696 0.514156
vn 0.000000 0.857697 0.514156
vn 0.000000 0.857697 0.514156
vn -0.000000 0.857697 0.514156
vn -0.000000 0.857697 0.514156
vn 0.000000 0.857697 0.514156
vn 0.000000 0.857697 0.514156
vn -0.000000 0.857697 0.514156
vn -0.000000 0.857696 0.514157
vn 0.000000 0.857696 0.514157
vn 0.000000 0.857696 0.514156
vn 0.000000 0.230265 -0.973128
vn 0.000000 0.230265 -0.973128
vn 0.000000 0.230265 -0.973128
vn 0.000000 0.230265 -0.973128
vn -1.000000 0.000000 0.000000
vn -1.000000 0.000000 0.000000
vn -1.000000 0.000000 0.000000
vn -1.000000 0.000000 0.000000
vn 0.000000 0.038931 0.999242
vn 0.000000 0.038931 0.999242
vn 0.000000 0.038931 0.999242
vn 0.000000 0.038931 0.999242
vn 1.000000 -0.000000 0.000000
vn 1.000000 -0.000000 0.000000
vn 1.000000 -0.000000 0.000000
vn 1.000000 -0.000000 0.000000
s 1
g pCube3
usemtl initialShadingGroup
f 1/1/1 12/15/2 9/36/3 3/3/4
s 2
f 5/45/5 10/48/6 11/14/7 7/6/8
s 3
f 18/22/9 19/23/10 12/16/11 1/8/12
s 4
f 2/2/13 21/26/14 22/27/15 4/4/16
s 5
f 18/21/17 1/1/18 3/3/19 17/20/20
s 2
f 11/14/7 10/48/6 14/46/21 15/17/22
s 3
f 12/16/11 19/23/10 20/24/23 16/19/24
s 1
f 9/36/3 12/15/2 16/18/25 13/38/26
s 2
f 15/17/22 14/46/21 6/5/27 8/7/28
s 3
f 16/19/24 20/24/23 21/25/29 2/9/30
s 1
f 13/38/26 16/18/25 2/2/31 4/4/32
s 5
f 24/29/33 18/21/17 17/20/20 23/28/34
s 3
f 24/30/35 25/31/36 19/23/10 18/22/9
f 20/24/23 19/23/10 25/31/36 26/32/37
f 21/25/29 20/24/23 26/32/37 27/33/38
s 4
f 22/27/15 21/26/14 27/34/39 28/35/40
s off
f 30/50/41 29/52/42 31/54/43 32/56/44
s 5
f 7/12/45 24/29/33 23/28/34 5/13/46
s 3
f 7/6/47 11/14/48 25/31/36 24/30/35
f 26/32/37 25/31/36 11/14/48 15/17/49
f 27/33/38 26/32/37 15/17/49 8/7/50
s 4
f 28/35/40 27/34/39 8/10/51 6/11/52
s off
f 33/37/53 34/55/54 36/53/55 35/44/56
f 34/55/57 33/37/58 37/41/59 38/49/60
f 35/44/61 36/53/62 40/51/63 39/47/64
f 38/49/65 37/41/66 39/47/67 40/51/68
s 6
f 3/3/69 9/36/70 33/37/71 17/40/72
f 9/36/70 13/38/73 37/41/74 33/37/71
f 13/38/73 4/4/75 22/39/76 37/41/74
f 17/40/72 33/37/71 35/44/77 23/43/78
f 37/41/74 22/39/76 28/42/79 39/47/80
f 23/43/78 35/44/77 10/48/81 5/45/82
f 39/47/80 28/42/79 6/5/83 14/46/84
f 35/44/77 39/47/80 14/46/84 10/48/81
s off
f 34/55/85 38/49/86 29/52/87 30/50/88
f 38/49/89 40/51/90 31/54/91 29/52/92
f 40/51/93 36/53/94 32/56/95 31/54/96
f 36/53/97 34/55/98 30/50/99 32/56/100
