# This file uses centimeters as units for non-parametric coordinates.

mtllib Dirt Pile.mtl
g default
v 0.431885 -0.006960 -0.846680
v -0.353749 0.017359 -0.929516
v -0.929760 -0.006960 0.078194
v -0.475878 -0.006960 0.614686
v 0.431885 -0.006960 0.614686
v 0.885767 -0.006960 0.078194
v 0.371077 0.075293 -0.774802
v -0.315709 0.126996 -0.771430
v -0.631477 0.267409 0.127987
v -0.415070 0.142946 0.474198
v 0.295005 0.159219 0.611668
v 0.623558 0.252530 0.107255
v 0.204944 0.326314 -0.190055
v -0.248937 0.326314 -0.190055
v -0.475878 0.326314 0.078194
v -0.248937 0.326314 0.346438
v 0.204944 0.326314 0.346438
v 0.431885 0.326314 0.078194
v -0.021997 0.377872 0.078194
vt 0.000000 0.500000
vt 0.166667 0.500000
vt 0.333333 0.500000
vt 0.500000 0.500000
vt 0.666667 0.500000
vt 0.833333 0.500000
vt 1.000000 0.500000
vt 0.000000 0.666667
vt 0.166667 0.666667
vt 0.333333 0.666667
vt 0.500000 0.666667
vt 0.666667 0.666667
vt 0.833333 0.666667
vt 1.000000 0.666667
vt 0.000000 0.833333
vt 0.166667 0.833333
vt 0.333333 0.833333
vt 0.500000 0.833333
vt 0.666667 0.833333
vt 0.833333 0.833333
vt 1.000000 0.833333
vt 0.083333 1.000000
vt 0.250000 1.000000
vt 0.416667 1.000000
vt 0.583333 1.000000
vt 0.750000 1.000000
vt 0.916667 1.000000
vn 0.496320 0.753676 -0.430858
vn -0.400939 0.787627 -0.467859
vn -0.302468 0.864298 -0.401872
vn 0.320753 0.854619 -0.408343
vn -0.659283 0.746373 -0.090956
vn -0.596786 0.802347 0.009297
vn -0.364345 0.537874 0.760227
vn -0.341086 0.638254 0.690139
vn 0.480612 0.558088 0.676424
vn 0.194293 0.635049 0.747638
vn 0.701006 0.713099 -0.008962
vn 0.600329 0.798557 0.043723
vn -0.106914 0.945168 -0.308587
vn 0.154445 0.937725 -0.311157
vn -0.345870 0.936555 -0.056909
vn -0.149374 0.849643 0.505761
vn 0.104247 0.880761 0.461945
vn 0.341873 0.937790 -0.060610
vn -0.000000 1.000000 0.000000
s 1
g Dirt_Pile
usemtl initialShadingGroup
f 1/1/1 2/2/2 8/9/3 7/8/4
f 2/2/2 3/3/5 9/10/6 8/9/3
f 3/3/5 4/4/7 10/11/8 9/10/6
f 4/4/7 5/5/9 11/12/10 10/11/8
f 5/5/9 6/6/11 12/13/12 11/12/10
f 6/6/11 1/7/1 7/14/4 12/13/12
f 7/8/4 8/9/3 14/16/13 13/15/14
f 8/9/3 9/10/6 15/17/15 14/16/13
f 9/10/6 10/11/8 16/18/16 15/17/15
f 10/11/8 11/12/10 17/19/17 16/18/16
f 11/12/10 12/13/12 18/20/18 17/19/17
f 12/13/12 7/14/4 13/21/14 18/20/18
f 13/15/14 14/16/13 19/22/19
f 14/16/13 15/17/15 19/23/19
f 15/17/15 16/18/16 19/24/19
f 16/18/16 17/19/17 19/25/19
f 17/19/17 18/20/18 19/26/19
f 18/20/18 13/21/14 19/27/19
