# This file uses centimeters as units for non-parametric coordinates.

mtllib Solar Panel.mtl
g default
v -0.941733 0.175546 0.754687
v 0.941733 0.175546 0.754687
v -0.941733 0.225918 0.792683
v 0.941733 0.225918 0.792683
v -0.941733 1.360148 -0.710967
v 0.941733 1.360148 -0.710967
v -0.941733 1.309776 -0.748964
v 0.941733 1.309776 -0.748964
vt 0.375000 0.000000
vt 0.625000 0.000000
vt 0.375000 0.250000
vt 0.625000 0.250000
vt 0.375000 0.500000
vt 0.625000 0.500000
vt 0.375000 0.750000
vt 0.625000 0.750000
vt 0.875000 0.000000
vt 0.875000 0.250000
vt 0.125000 0.000000
vt 0.125000 0.250000
vn 0.000000 -0.602204 0.798343
vn 0.000000 -0.602204 0.798343
vn 0.000000 -0.602204 0.798343
vn 0.000000 -0.602204 0.798343
vn 0.000000 0.798343 0.602204
vn 0.000000 0.798343 0.602204
vn 0.000000 0.798343 0.602204
vn 0.000000 0.798343 0.602204
vn 0.000000 0.602204 -0.798343
vn 0.000000 0.602204 -0.798343
vn 0.000000 0.602204 -0.798343
vn 0.000000 0.602204 -0.798343
vn 1.000000 0.000000 0.000000
vn 1.000000 0.000000 0.000000
vn 1.000000 0.000000 0.000000
vn 1.000000 0.000000 0.000000
vn -1.000000 0.000000 0.000000
vn -1.000000 0.000000 0.000000
vn -1.000000 0.000000 0.000000
vn -1.000000 0.000000 0.000000
s off
g Panel Solar_Panel
usemtl initialShadingGroup
f 1/1/1 2/2/2 4/4/3 3/3/4
f 3/3/5 4/4/6 6/6/7 5/5/8
f 5/5/9 6/6/10 8/8/11 7/7/12
f 2/2/13 8/9/14 6/10/15 4/4/16
f 7/11/17 1/1/18 3/3/19 5/12/20
g default
v -0.072271 -0.193880 0.072271
v 0.072271 -0.193880 0.072271
v -0.072271 0.741192 0.072271
v 0.072271 0.741192 0.072271
v -0.072271 0.741192 -0.072271
v 0.072271 0.741192 -0.072271
v -0.072271 -0.193880 -0.072271
v 0.072271 -0.193880 -0.072271
v 0.951057 -0.267695 -0.309017
v 0.809018 -0.267695 -0.587786
v 0.587786 -0.267695 -0.809017
v 0.309017 -0.267695 -0.951057
v 0.000000 -0.267695 -1.000000
v -0.309017 -0.267695 -0.951057
v -0.587785 -0.267695 -0.809017
v -0.809017 -0.267695 -0.587785
v -0.951057 -0.267695 -0.309017
v -1.000000 -0.267695 0.000000
v -0.951057 -0.267695 0.309017
v -0.809017 -0.267695 0.587785
v -0.587785 -0.267695 0.809017
v -0.309017 -0.267695 0.951057
v -0.000000 -0.267695 1.000000
v 0.309017 -0.267695 0.951057
v 0.587785 -0.267695 0.809017
v 0.809017 -0.267695 0.587785
v 0.951057 -0.267695 0.309017
v 1.000000 -0.267695 0.000000
v 0.951057 -0.189184 -0.309017
v 0.809018 -0.189184 -0.587786
v 0.587786 -0.189184 -0.809017
v 0.309017 -0.189184 -0.951057
v 0.000000 -0.189184 -1.000000
v -0.309017 -0.189184 -0.951057
v -0.587785 -0.189184 -0.809017
v -0.809017 -0.189184 -0.587785
v -0.951057 -0.189184 -0.309017
v -1.000000 -0.189184 0.000000
v -0.951057 -0.189184 0.309017
v -0.809017 -0.189184 0.587785
v -0.587785 -0.189184 0.809017
v -0.309017 -0.189184 0.951057
v -0.000000 -0.189184 1.000000
v 0.309017 -0.189184 0.951057
v 0.587785 -0.189184 0.809017
v 0.809017 -0.189184 0.587785
v 0.951057 -0.189184 0.309017
v 1.000000 -0.189184 0.000000
v 0.000000 -0.267695 0.000000
v 0.000000 -0.189184 0.000000
v -1.051300 0.066259 0.836278
v 1.051300 0.066259 0.836278
v -1.051300 0.122492 0.878696
v 1.051300 0.122492 0.878696
v -1.051300 1.388686 -0.799900
v 1.051300 1.388686 -0.799900
v -1.051300 1.332453 -0.842317
v 1.051300 1.332453 -0.842317
vt 0.375000 0.000000
vt 0.625000 0.000000
vt 0.375000 0.250000
vt 0.625000 0.250000
vt 0.375000 0.500000
vt 0.625000 0.500000
vt 0.375000 0.750000
vt 0.625000 0.750000
vt 0.875000 0.000000
vt 0.875000 0.250000
vt 0.125000 0.000000
vt 0.125000 0.250000
vt 0.375000 0.312500
vt 0.387500 0.312500
vt 0.387500 0.688440
vt 0.375000 0.688440
vt 0.400000 0.312500
vt 0.400000 0.688440
vt 0.412500 0.312500
vt 0.412500 0.688440
vt 0.425000 0.312500
vt 0.425000 0.688440
vt 0.437500 0.312500
vt 0.437500 0.688440
vt 0.450000 0.312500
vt 0.450000 0.688440
vt 0.462500 0.312500
vt 0.462500 0.688440
vt 0.475000 0.312500
vt 0.475000 0.688440
vt 0.487500 0.312500
vt 0.487500 0.688440
vt 0.500000 0.312500
vt 0.500000 0.688440
vt 0.512500 0.312500
vt 0.512500 0.688440
vt 0.525000 0.312500
vt 0.525000 0.688440
vt 0.537500 0.312500
vt 0.537500 0.688440
vt 0.550000 0.312500
vt 0.550000 0.688440
vt 0.562500 0.312500
vt 0.562500 0.688440
vt 0.575000 0.312500
vt 0.575000 0.688440
vt 0.587500 0.312500
vt 0.587500 0.688440
vt 0.600000 0.312500
vt 0.600000 0.688440
vt 0.612500 0.312500
vt 0.612500 0.688440
vt 0.625000 0.312500
vt 0.625000 0.688440
vt 0.626409 0.064408
vt 0.648603 0.107966
vt 0.500000 0.150000
vt 0.591842 0.029841
vt 0.548284 0.007647
vt 0.500000 -0.000000
vt 0.451716 0.007647
vt 0.408159 0.029841
vt 0.373591 0.064409
vt 0.351397 0.107966
vt 0.343750 0.156250
vt 0.351397 0.204534
vt 0.373591 0.248091
vt 0.408159 0.282659
vt 0.451716 0.304853
vt 0.500000 0.312500
vt 0.548284 0.304853
vt 0.591841 0.282659
vt 0.626409 0.248091
vt 0.648603 0.204534
vt 0.656250 0.156250
vt 0.648603 0.892034
vt 0.626409 0.935591
vt 0.500000 0.837500
vt 0.591841 0.970159
vt 0.548284 0.992353
vt 0.500000 1.000000
vt 0.451716 0.992353
vt 0.408159 0.970159
vt 0.373591 0.935591
vt 0.351397 0.892034
vt 0.343750 0.843750
vt 0.351397 0.795466
vt 0.373591 0.751909
vt 0.408159 0.717341
vt 0.451716 0.695147
vt 0.500000 0.687500
vt 0.548284 0.695147
vt 0.591842 0.717341
vt 0.626409 0.751908
vt 0.648603 0.795466
vt 0.656250 0.843750
vt 0.375000 0.000000
vt 0.625000 0.000000
vt 0.625000 0.250000
vt 0.375000 0.250000
vt 0.625000 0.500000
vt 0.375000 0.500000
vt 0.625000 0.750000
vt 0.375000 0.750000
vt 0.625000 1.000000
vt 0.375000 1.000000
vt 0.875000 0.000000
vt 0.875000 0.250000
vt 0.125000 0.000000
vt 0.125000 0.250000
vn 0.000000 0.000000 1.000000
vn 0.000000 0.000000 1.000000
vn 0.000000 0.000000 1.000000
vn 0.000000 0.000000 1.000000
vn 0.000000 0.000000 -1.000000
vn 0.000000 0.000000 -1.000000
vn 0.000000 0.000000 -1.000000
vn 0.000000 0.000000 -1.000000
vn 1.000000 0.000000 0.000000
vn 1.000000 0.000000 0.000000
vn 1.000000 0.000000 0.000000
vn 1.000000 0.000000 0.000000
vn -1.000000 0.000000 0.000000
vn -1.000000 0.000000 0.000000
vn -1.000000 0.000000 0.000000
vn -1.000000 0.000000 0.000000
vn 0.951057 0.000000 -0.309016
vn 0.809017 0.000000 -0.587785
vn 0.809017 0.000000 -0.587785
vn 0.951057 0.000000 -0.309016
vn 0.587785 0.000000 -0.809017
vn 0.587785 0.000000 -0.809017
vn 0.309017 0.000000 -0.951057
vn 0.309017 0.000000 -0.951057
vn 0.000000 0.000000 -1.000000
vn 0.000000 0.000000 -1.000000
vn -0.309017 0.000000 -0.951056
vn -0.309017 0.000000 -0.951056
vn -0.587786 0.000000 -0.809017
vn -0.587786 0.000000 -0.809017
vn -0.809017 0.000000 -0.587785
vn -0.809017 0.000000 -0.587785
vn -0.951057 0.000000 -0.309017
vn -0.951057 0.000000 -0.309017
vn -1.000000 0.000000 0.000000
vn -1.000000 0.000000 0.000000
vn -0.951057 0.000000 0.309017
vn -0.951057 0.000000 0.309017
vn -0.809017 0.000000 0.587785
vn -0.809017 0.000000 0.587785
vn -0.587785 0.000000 0.809017
vn -0.587785 0.000000 0.809017
vn -0.309017 0.000000 0.951057
vn -0.309017 0.000000 0.951057
vn 0.000000 0.000000 1.000000
vn 0.000000 0.000000 1.000000
vn 0.309017 0.000000 0.951057
vn 0.309017 0.000000 0.951057
vn 0.587785 0.000000 0.809017
vn 0.587785 0.000000 0.809017
vn 0.809017 0.000000 0.587785
vn 0.809017 0.000000 0.587785
vn 0.951057 0.000000 0.309017
vn 0.951057 0.000000 0.309017
vn 1.000000 0.000000 0.000001
vn 1.000000 0.000000 0.000001
vn 0.000000 -1.000000 0.000000
vn 0.000000 -1.000000 0.000000
vn 0.000000 -1.000000 0.000000
vn 0.000000 -1.000000 -0.000000
vn 0.000000 -1.000000 -0.000000
vn 0.000000 -1.000000 0.000000
vn 0.000000 -1.000000 0.000000
vn 0.000000 -1.000000 0.000000
vn 0.000000 -1.000000 0.000000
vn 0.000000 -1.000000 0.000000
vn 0.000000 -1.000000 0.000000
vn 0.000000 -1.000000 0.000000
vn 0.000000 -1.000000 0.000000
vn 0.000000 -1.000000 0.000000
vn 0.000000 -1.000000 -0.000000
vn 0.000000 -1.000000 -0.000000
vn 0.000000 -1.000000 0.000000
vn 0.000000 -1.000000 0.000000
vn 0.000000 -1.000000 0.000000
vn 0.000000 -1.000000 0.000000
vn 0.000000 -1.000000 0.000000
vn 0.000000 1.000000 0.000000
vn 0.000000 1.000000 0.000000
vn 0.000000 1.000000 -0.000000
vn 0.000000 1.000000 -0.000000
vn 0.000000 1.000000 -0.000000
vn 0.000000 1.000000 0.000000
vn 0.000000 1.000000 -0.000000
vn 0.000000 1.000000 -0.000000
vn 0.000000 1.000000 0.000000
vn 0.000000 1.000000 0.000000
vn 0.000000 1.000000 0.000000
vn 0.000000 1.000000 0.000000
vn 0.000000 1.000000 0.000000
vn 0.000000 1.000000 0.000000
vn 0.000000 1.000000 0.000000
vn 0.000000 1.000000 0.000000
vn 0.000000 1.000000 0.000000
vn 0.000000 1.000000 0.000000
vn 0.000000 1.000000 -0.000000
vn 0.000000 1.000000 -0.000000
vn 0.000000 1.000000 0.000000
vn 0.000000 -0.602204 0.798343
vn 0.000000 -0.602204 0.798343
vn 0.000000 -0.602204 0.798343
vn 0.000000 -0.602204 0.798343
vn 0.000000 0.798343 0.602204
vn 0.000000 0.798343 0.602204
vn 0.000000 0.798343 0.602204
vn 0.000000 0.798343 0.602204
vn 0.000000 0.602204 -0.798343
vn 0.000000 0.602204 -0.798343
vn 0.000000 0.602204 -0.798343
vn 0.000000 0.602204 -0.798343
vn 0.000000 -0.798343 -0.602204
vn 0.000000 -0.798343 -0.602204
vn 0.000000 -0.798343 -0.602204
vn 0.000000 -0.798343 -0.602204
vn 1.000000 -0.000000 0.000000
vn 1.000000 -0.000000 0.000000
vn 1.000000 -0.000000 0.000000
vn 1.000000 -0.000000 0.000000
vn -1.000000 0.000000 0.000000
vn -1.000000 0.000000 0.000000
vn -1.000000 0.000000 0.000000
vn -1.000000 0.000000 0.000000
s off
g Solar_Panel Panel_Stand
usemtl initialShadingGroup
f 9/13/21 10/14/22 12/16/23 11/15/24
f 13/17/25 14/18/26 16/20/27 15/19/28
f 10/14/29 16/21/30 14/22/31 12/16/32
f 15/23/33 9/13/34 11/15/35 13/24/36
s 1
f 17/25/37 18/26/38 38/27/39 37/28/40
f 18/26/38 19/29/41 39/30/42 38/27/39
f 19/29/41 20/31/43 40/32/44 39/30/42
f 20/31/43 21/33/45 41/34/46 40/32/44
f 21/33/45 22/35/47 42/36/48 41/34/46
f 22/35/47 23/37/49 43/38/50 42/36/48
f 23/37/49 24/39/51 44/40/52 43/38/50
f 24/39/51 25/41/53 45/42/54 44/40/52
f 25/41/53 26/43/55 46/44/56 45/42/54
f 26/43/55 27/45/57 47/46/58 46/44/56
f 27/45/57 28/47/59 48/48/60 47/46/58
f 28/47/59 29/49/61 49/50/62 48/48/60
f 29/49/61 30/51/63 50/52/64 49/50/62
f 30/51/63 31/53/65 51/54/66 50/52/64
f 31/53/65 32/55/67 52/56/68 51/54/66
f 32/55/67 33/57/69 53/58/70 52/56/68
f 33/57/69 34/59/71 54/60/72 53/58/70
f 34/59/71 35/61/73 55/62/74 54/60/72
f 35/61/73 36/63/75 56/64/76 55/62/74
f 36/63/75 17/65/37 37/66/40 56/64/76
s 2
f 18/67/77 17/68/78 57/69/79
f 19/70/80 18/67/77 57/69/79
f 20/71/81 19/70/80 57/69/79
f 21/72/82 20/71/81 57/69/79
f 22/73/83 21/72/82 57/69/79
f 23/74/84 22/73/83 57/69/79
f 24/75/85 23/74/84 57/69/79
f 25/76/86 24/75/85 57/69/79
f 26/77/87 25/76/86 57/69/79
f 27/78/88 26/77/87 57/69/79
f 28/79/89 27/78/88 57/69/79
f 29/80/90 28/79/89 57/69/79
f 30/81/91 29/80/90 57/69/79
f 31/82/92 30/81/91 57/69/79
f 32/83/93 31/82/92 57/69/79
f 33/84/94 32/83/93 57/69/79
f 34/85/95 33/84/94 57/69/79
f 35/86/96 34/85/95 57/69/79
f 36/87/97 35/86/96 57/69/79
f 17/68/78 36/87/97 57/69/79
s 3
f 37/88/98 38/89/99 58/90/100
f 38/89/99 39/91/101 58/90/100
f 39/91/101 40/92/102 58/90/100
f 40/92/102 41/93/103 58/90/100
f 41/93/103 42/94/104 58/90/100
f 42/94/104 43/95/105 58/90/100
f 43/95/105 44/96/106 58/90/100
f 44/96/106 45/97/107 58/90/100
f 45/97/107 46/98/108 58/90/100
f 46/98/108 47/99/109 58/90/100
f 47/99/109 48/100/110 58/90/100
f 48/100/110 49/101/111 58/90/100
f 49/101/111 50/102/112 58/90/100
f 50/102/112 51/103/113 58/90/100
f 51/103/113 52/104/114 58/90/100
f 52/104/114 53/105/115 58/90/100
f 53/105/115 54/106/116 58/90/100
f 54/106/116 55/107/117 58/90/100
f 55/107/117 56/108/118 58/90/100
f 56/108/118 37/88/98 58/90/100
s off
f 59/109/119 60/110/120 62/111/121 61/112/122
f 61/112/123 62/111/124 64/113/125 63/114/126
f 63/114/127 64/113/128 66/115/129 65/116/130
f 65/116/131 66/115/132 60/117/133 59/118/134
f 60/110/135 66/119/136 64/120/137 62/111/138
f 65/121/139 59/109/140 61/112/141 63/122/142
